<svg fill="#000000" height="200px" width="200px" version="1.1" id="Layer_1" xmlns="http://www.w3.org/2000/svg" xmlns:xlink="http://www.w3.org/1999/xlink" viewBox="0 0 512.001 512.001" xml:space="preserve"><g id="SVGRepo_bgCarrier" stroke-width="0"></g><g id="SVGRepo_tracerCarrier" stroke-linecap="round" stroke-linejoin="round"></g><g id="SVGRepo_iconCarrier"> <g> <g> <g> <path d="M462.184,105.966H49.816C22.303,105.966,0,128.269,0,155.782v214.924c0,27.512,22.303,49.816,49.816,49.816h1.163 c3.448,0,6.244-2.796,6.244-6.244V304.231c0-6.897-5.591-12.488-12.488-12.488H43.93c-6.897,0-12.488-5.591-12.488-12.488 c0-6.897,5.591-12.488,12.488-12.488h424.142c6.897,0,12.488,5.591,12.488,12.488c0,6.897-5.591,12.488-12.488,12.488h-0.805 c-6.897,0-12.488,5.591-12.488,12.488v110.048c0,3.448,2.796,6.244,6.244,6.244h1.163c27.512,0,49.816-22.303,49.816-49.816 V155.782C512,128.269,489.697,105.966,462.184,105.966z M89.192,215.896c-11.449,0-20.729-9.281-20.729-20.73 c0-11.449,9.281-20.729,20.729-20.729s20.73,9.281,20.73,20.729C109.92,206.615,100.639,215.896,89.192,215.896z M143.083,215.896c-11.449,0-20.729-9.281-20.729-20.73c0-11.449,9.281-20.729,20.729-20.729s20.729,9.281,20.729,20.729 C163.813,206.615,154.532,215.896,143.083,215.896z"></path> <path d="M417.314,291.743H94.685c-6.897,0-12.488,5.591-12.488,12.488V462.23c0,10.345,8.387,18.732,18.732,18.732H411.07 c10.345,0,18.732-8.387,18.732-18.732V304.231C429.802,297.334,424.211,291.743,417.314,291.743z M303.089,432.498h-93.155 c-10.345,0-18.732-8.387-18.732-18.732s8.387-18.732,18.732-18.732h93.155c10.345,0,18.732,8.387,18.732,18.732 S313.434,432.498,303.089,432.498z M349.109,375.717H163.915c-10.345,0-18.732-8.387-18.732-18.732 c0-10.345,8.387-18.732,18.732-18.732h185.194c10.345,0,18.732,8.387,18.732,18.732 C367.841,367.331,359.454,375.717,349.109,375.717z"></path> <path d="M94.681,80.99h322.636c6.897,0,12.489-5.591,12.489-12.488V49.771c0-10.345-8.387-18.732-18.732-18.732h-310.15 c-10.345,0-18.732,8.387-18.732,18.732v18.732C82.193,75.399,87.784,80.99,94.681,80.99z"></path> </g> </g> </g> </g></svg>