<svg version="1.1" id="Layer_1" xmlns="http://www.w3.org/2000/svg" xmlns:xlink="http://www.w3.org/1999/xlink" x="0px" y="0px"
	 width="100%" viewBox="0 0 512 512" enable-background="new 0 0 512 512" xml:space="preserve">
<path fill="#000000" opacity="1.000000" stroke="none" 
	d="
M1.000005,358.000000 
	C1.000000,293.979095 1.000000,229.958206 1.364278,165.358093 
	C4.814438,159.029083 7.126925,152.657150 11.147452,147.659225 
	C19.477156,137.304565 31.546307,134.340546 44.198338,134.077789 
	C59.849968,133.752716 75.513496,134.006973 91.171852,133.986801 
	C92.427513,133.985184 93.682922,133.796555 95.000000,133.689850 
	C95.000000,100.824509 94.996582,68.346924 95.002029,35.869335 
	C95.003731,25.751913 101.678268,19.003202 111.700012,19.002731 
	C208.482132,18.998177 305.264374,19.071444 402.046173,18.885572 
	C411.361725,18.867683 419.237030,26.688309 419.130554,36.116993 
	C418.782562,66.930092 419.000000,97.749573 419.000000,128.566605 
	C419.000000,130.324219 419.000000,132.081848 419.000000,134.999954 
	C438.847290,134.999954 458.070953,134.955566 477.294250,135.019196 
	C486.528809,135.049744 493.975647,139.434662 500.706451,145.240768 
	C507.108856,150.763580 510.177673,158.323685 513.000000,166.000000 
	C513.000000,228.687561 513.000000,291.375122 512.625732,354.654053 
	C509.512970,360.978271 507.629333,367.362152 503.860992,372.310822 
	C495.580505,383.184875 483.468109,386.811768 470.269501,386.958435 
	C454.443420,387.134338 438.613861,386.993042 422.785858,387.013428 
	C421.533325,387.015015 420.281097,387.206573 419.000000,387.312225 
	C419.000000,417.884003 419.004181,448.039581 418.997650,478.195160 
	C418.995483,488.268829 412.283997,494.997192 402.230103,494.997589 
	C305.429077,495.001587 208.628036,495.001465 111.827003,494.997894 
	C101.735100,494.997528 95.005241,488.299377 95.002625,478.252289 
	C94.995155,449.595184 95.000000,420.938080 95.000000,392.280975 
	C95.000000,390.537781 95.000000,388.794586 95.000000,386.000122 
	C74.526550,386.000122 54.772312,386.460144 35.053391,385.824493 
	C23.555866,385.453888 14.622507,379.051422 8.027598,369.734772 
	C5.401037,366.024231 3.326075,361.923248 1.000005,358.000000 
M130.000000,422.500000 
	C130.000000,434.930511 130.000000,447.361023 130.000000,459.713196 
	C214.977951,459.713196 299.379395,459.713196 383.711914,459.713196 
	C383.711914,413.689178 383.711914,367.952515 383.711914,322.286804 
	C299.022034,322.286804 214.620575,322.286804 130.000000,322.286804 
	C130.000000,355.548737 130.000000,388.524353 130.000000,422.500000 
M186.500000,134.000000 
	C252.258514,134.000000 318.017029,134.000000 383.713989,134.000000 
	C383.713989,107.027397 383.713989,80.623192 383.713989,54.283722 
	C299.026855,54.283722 214.626083,54.283722 130.286011,54.283722 
	C130.286011,80.972626 130.286011,107.376816 130.286011,134.000000 
	C148.880783,134.000000 167.190384,134.000000 186.500000,134.000000 
M342.000061,216.716354 
	C341.243317,227.545044 350.043610,234.699722 360.482788,234.935806 
	C372.641632,235.210770 384.814301,235.147430 396.974731,234.910004 
	C400.615662,234.838928 404.345856,234.049454 407.843018,232.967926 
	C415.981506,230.451019 420.557587,219.656906 417.023895,212.019821 
	C413.348877,204.077438 406.533630,201.218857 398.436798,201.060623 
	C386.442963,200.826218 374.417694,200.537766 362.450104,201.145081 
	C352.731323,201.638275 345.474823,202.854965 342.000061,216.716354 
z"/>
<path fill="#FFFFFF" opacity="1.000000" stroke="none" 
	d="
M513.000000,165.531342 
	C510.177673,158.323685 507.108856,150.763580 500.706451,145.240768 
	C493.975647,139.434662 486.528809,135.049744 477.294250,135.019196 
	C458.070953,134.955566 438.847290,134.999954 419.000000,134.999954 
	C419.000000,132.081848 419.000000,130.324219 419.000000,128.566605 
	C419.000000,97.749573 418.782562,66.930092 419.130554,36.116993 
	C419.237030,26.688309 411.361725,18.867683 402.046173,18.885572 
	C305.264374,19.071444 208.482132,18.998177 111.700012,19.002731 
	C101.678268,19.003202 95.003731,25.751913 95.002029,35.869335 
	C94.996582,68.346924 95.000000,100.824509 95.000000,133.689850 
	C93.682922,133.796555 92.427513,133.985184 91.171852,133.986801 
	C75.513496,134.006973 59.849968,133.752716 44.198338,134.077789 
	C31.546307,134.340546 19.477156,137.304565 11.147452,147.659225 
	C7.126925,152.657150 4.814438,159.029083 1.364278,164.889435 
	C1.000000,110.361763 1.000000,55.723534 1.000000,1.042649 
	C171.549454,1.042649 342.098907,1.042649 513.000000,1.042649 
	C513.000000,55.687057 513.000000,110.374870 513.000000,165.531342 
z"/>
<path fill="#FFFFFF" opacity="1.000000" stroke="none" 
	d="
M1.000005,358.468658 
	C3.326075,361.923248 5.401037,366.024231 8.027598,369.734772 
	C14.622507,379.051422 23.555866,385.453888 35.053391,385.824493 
	C54.772312,386.460144 74.526550,386.000122 95.000000,386.000122 
	C95.000000,388.794586 95.000000,390.537781 95.000000,392.280975 
	C95.000000,420.938080 94.995155,449.595184 95.002625,478.252289 
	C95.005241,488.299377 101.735100,494.997528 111.827003,494.997894 
	C208.628036,495.001465 305.429077,495.001587 402.230103,494.997589 
	C412.283997,494.997192 418.995483,488.268829 418.997650,478.195160 
	C419.004181,448.039581 419.000000,417.884003 419.000000,387.312225 
	C420.281097,387.206573 421.533325,387.015015 422.785858,387.013428 
	C438.613861,386.993042 454.443420,387.134338 470.269501,386.958435 
	C483.468109,386.811768 495.580505,383.184875 503.860992,372.310822 
	C507.629333,367.362152 509.512970,360.978271 512.625732,355.122681 
	C513.000000,407.638702 513.000000,460.277435 513.000000,512.958069 
	C342.451843,512.958069 171.903671,512.958069 1.000000,512.958069 
	C1.000000,461.646332 1.000000,410.291809 1.000005,358.468658 
z"/>
<path fill="#FFFFFF" opacity="1.000000" stroke="none" 
	d="
M130.000000,422.000000 
	C130.000000,388.524353 130.000000,355.548737 130.000000,322.286804 
	C214.620575,322.286804 299.022034,322.286804 383.711914,322.286804 
	C383.711914,367.952515 383.711914,413.689178 383.711914,459.713196 
	C299.379395,459.713196 214.977951,459.713196 130.000000,459.713196 
	C130.000000,447.361023 130.000000,434.930511 130.000000,422.000000 
M331.285858,435.000000 
	C342.033508,434.994934 349.078339,426.704681 348.155151,416.189819 
	C347.257965,405.971527 338.828979,400.028473 328.325195,400.018799 
	C281.362183,399.975555 234.399033,399.981079 187.436050,400.043427 
	C184.373108,400.047516 181.136688,400.154816 178.281586,401.111389 
	C170.155304,403.833954 164.515717,409.522095 165.986176,421.908356 
	C166.613022,427.188690 174.386673,435.268127 182.453308,435.202026 
	C231.744568,434.797974 281.040802,435.000000 331.285858,435.000000 
M244.500000,347.000000 
	C223.687485,347.000000 202.865707,347.367523 182.066452,346.842102 
	C171.947723,346.586456 161.999176,358.410767 166.900131,370.642517 
	C170.486893,379.594360 177.983368,381.889984 186.332642,381.921356 
	C230.787674,382.088379 275.243713,382.030975 319.699249,381.956055 
	C324.598969,381.947815 329.518402,381.514893 334.392090,380.958374 
	C342.051361,380.083771 349.029175,371.773468 348.688629,364.247375 
	C348.247375,354.496246 341.194611,347.005524 332.413300,347.003052 
	C303.442200,346.994934 274.471100,347.000000 244.500000,347.000000 
z"/>
<path fill="#FFFFFF" opacity="1.000000" stroke="none" 
	d="
M186.000000,134.000000 
	C167.190384,134.000000 148.880783,134.000000 130.286011,134.000000 
	C130.286011,107.376816 130.286011,80.972626 130.286011,54.283722 
	C214.626083,54.283722 299.026855,54.283722 383.713989,54.283722 
	C383.713989,80.623192 383.713989,107.027397 383.713989,134.000000 
	C318.017029,134.000000 252.258514,134.000000 186.000000,134.000000 
z"/>
<path fill="#FFFFFF" opacity="1.000000" stroke="none" 
	d="
M342.000671,216.285950 
	C345.474823,202.854965 352.731323,201.638275 362.450104,201.145081 
	C374.417694,200.537766 386.442963,200.826218 398.436798,201.060623 
	C406.533630,201.218857 413.348877,204.077438 417.023895,212.019821 
	C420.557587,219.656906 415.981506,230.451019 407.843018,232.967926 
	C404.345856,234.049454 400.615662,234.838928 396.974731,234.910004 
	C384.814301,235.147430 372.641632,235.210770 360.482788,234.935806 
	C350.043610,234.699722 341.243317,227.545044 342.000671,216.285950 
z"/>
<path fill="#000000" opacity="1.000000" stroke="none" 
	d="
M330.810608,435.000000 
	C281.040802,435.000000 231.744568,434.797974 182.453308,435.202026 
	C174.386673,435.268127 166.613022,427.188690 165.986176,421.908356 
	C164.515717,409.522095 170.155304,403.833954 178.281586,401.111389 
	C181.136688,400.154816 184.373108,400.047516 187.436050,400.043427 
	C234.399033,399.981079 281.362183,399.975555 328.325195,400.018799 
	C338.828979,400.028473 347.257965,405.971527 348.155151,416.189819 
	C349.078339,426.704681 342.033508,434.994934 330.810608,435.000000 
z"/>
<path fill="#000000" opacity="1.000000" stroke="none" 
	d="
M245.000000,347.000000 
	C274.471100,347.000000 303.442200,346.994934 332.413300,347.003052 
	C341.194611,347.005524 348.247375,354.496246 348.688629,364.247375 
	C349.029175,371.773468 342.051361,380.083771 334.392090,380.958374 
	C329.518402,381.514893 324.598969,381.947815 319.699249,381.956055 
	C275.243713,382.030975 230.787674,382.088379 186.332642,381.921356 
	C177.983368,381.889984 170.486893,379.594360 166.900131,370.642517 
	C161.999176,358.410767 171.947723,346.586456 182.066452,346.842102 
	C202.865707,347.367523 223.687485,347.000000 245.000000,347.000000 
z"/>
</svg>